<svg xmlns="http://www.w3.org/2000/svg" width="200" height="200" fill="none" viewBox="0 0 200 200"><path fill="#fff" d="M199.95 200V199.992H200V126.642C200 90.7583 192.275 63.1167 150.325 63.1167C130.158 63.1167 116.625 74.1833 111.1 84.675H110.517V66.4667H70.7417V199.992H112.158V133.875C112.158 116.467 115.458 99.6333 137.017 99.6333C158.258 99.6333 158.575 119.5 158.575 134.992V200H199.95Z"/><path fill="#fff" d="M3.3 66.475H44.7667V200H3.3V66.475Z"/><path fill="#fff" d="M24.0167 0C10.7583 0 0 10.7583 0 24.0167C0 37.275 10.7583 48.2583 24.0167 48.2583C37.275 48.2583 48.0333 37.275 48.0333 24.0167C48.025 10.7583 37.2667 0 24.0167 0V0Z"/></svg>