<svg xmlns="http://www.w3.org/2000/svg" width="601" height="423" fill="none" viewBox="0 0 601 423"><path fill="#DBF6FF" d="M439.4 10C450.3 6.50003 461.9 5.80003 473.3 6.50003C489.7 7.50003 506.8 11.5 518.8 22.7C526.4 29.7 531.4 39 537.6 47.4C555.3 71.7 582.7 89 594.7 116.6C604.9 140.2 601.1 169.8 583.5 188.5C565.9 207.2 534.9 212.5 513.2 198.9C492.3 185.8 483.1 159.8 463.9 144.2C450.2 133.1 432.6 128.1 417.8 118.6C402.6 108.9 390.3 93.6 387.5 75.7C385.2 60.9 390.5 44.8 402 35.1C413.3 25.6 425.1 14.5 439.4 10Z"/><path fill="#BCDFEB" d="M534.1 191C515.2 194 496.8 189.1 478 185.7C459.9 182.4 441.9 176.1 427.5 164.3C420.9 158.9 415.1 152.2 412.5 144C408.8 132.4 412.2 119.9 412.1 107.7C412.1 93.4 408.5 79.7 398.6 69.2C392.6 62.8 385.6 57.2 380.8 49.8C370.9 34.3 378.6 13.6 394 4.89997C408.1 -3.00003 426 0.0999694 440.6 6.99997C455.2 13.9 468 24.2 482.7 30.9C498.8 38.3 516.4 41.2 534.1 42.9C547.7 44.2 561.5 42.6 572.5 50.6C580.4 56.3 586 64.8 589.3 74C595.5 91.4 594.2 111.8 591.4 129.8C589.5 141.8 585.7 153.7 578.7 163.7C570.1 176 557.1 184.8 542.7 189C539.9 189.9 537 190.6 534.1 191Z"/><path fill="#DBF6FF" d="M504.4 422.6H65.8999C32.7999 397.3 9.7999 361.3 3.5999 320.1C0.999898 303 2.4999 282.7 16.3999 272.4C37.8999 256.6 70.0999 276.5 94.2999 265.5C109.9 258.4 117.6 240 117.8 222.8C118 205.6 112.2 189.1 107.8 172.5C103.5 155.9 100.6 138 106.5 121.8C112.4 105.7 129.6 92.6 146.3 96.9C160.5 100.6 169.6 115 183.2 120.5C197.4 126.2 213.9 121 226.5 112.3C239.1 103.6 249.1 91.7 260.9 82C281.6 64.8 308.9 54.3 335.5 58.3C362.1 62.3 386.7 82.9 390.8 109.4C394.2 131.1 385.1 156.2 398.4 173.7C413.4 193.4 444.8 187.9 466.5 199.9C484.2 209.7 493.6 232.3 488.1 251.7C482.5 271.5 463.4 288.2 466.5 308.5C468.7 323.1 481.7 333.2 490.8 344.8C508.3 367.2 516.2 396.8 504.4 422.6Z"/><path fill="#BCDFEB" d="M483.9 422.6H108.1C96.7 412.2 83.9 402.6 77.4 388.6C70.9 374.6 70.9 356.3 81.6 345.2C94.5 331.7 116 333.5 134.1 329.1C155 323.9 174 307.2 176.7 285.8C180.2 258.2 157.1 233.1 158.5 205.3C159.6 183.4 178.2 163.8 200 161.4C214.7 159.8 230 165.2 244.2 161.1C257.4 157.3 266.9 146.1 278.3 138.5C291.7 129.6 308.9 125.8 324.4 130.2C339.9 134.6 353 148 355.1 164C357.3 181 348.1 200.3 357.9 214.3C365.2 224.8 379.8 226.8 392.5 226.4C405.3 226 418.8 224.3 430.1 230.4C440.5 236.1 446.7 247.8 447.9 259.6C449.1 271.4 445.8 283.3 440.9 294.1C436.7 303.6 431.2 312.5 428 322.4C424.8 332.3 424.1 343.6 429.4 352.6C434.9 362 445.5 366.9 454.2 373.6C469.3 385 482.7 403.3 483.9 422.6Z"/><path fill="#FAFAFA" d="M452.4 57.4L474.1 112.6L520.4 86.5L452.4 57.4Z"/><path fill="#D9D9D9" d="M452.4 57.4L495.1 100.8L506.7 94.2L452.4 57.4Z"/><path fill="#D9D9D9" d="M506.7 94.2001L498.6 114.3L495.1 100.8L506.7 94.2001Z"/><path fill="#B0B0B0" d="M498.6 114.3L488.6 104.4L495.1 100.8L498.6 114.3Z"/><path stroke="#52BFDE" stroke-dasharray="7.62 7.62" stroke-miterlimit="10" stroke-width="2.541" d="M168.5 405.5C119.6 392.6 76.9 357.7 54.6 312.3C45.4 293.6 39.5 272.7 40.9 251.9C42.3 231.1 51.6 210.2 68.3 197.7C85 185.2 109.4 182.5 127.1 193.6C144.2 204.3 152.3 224.9 167.1 238.6C184.8 255 212.9 259.8 234.2 248.5C255.5 237.3 267.5 210 259.8 187.2C252.6 166.1 232.2 152.9 214.5 139.3C196.8 125.7 179.2 106.6 181.7 84.4C183.9 65.3 200.7 51 218.3 43.6C252.3 29.4 296 35.7 319 64.3C343.8 95 339 139.9 327.9 177.8C316.7 215.7 300.2 254 305.8 293.2C310.4 325.7 330.6 354.9 357.3 374C384 393.1 416.8 402.5 449.6 404.5C482.3 406.5 517.4 400.4 541.6 378.3C565.8 356.2 574 315 552.6 290.2C541.5 277.4 525 270.8 509.1 264.9C493.2 259 476.6 252.8 465.1 240.4C453.6 228 449.1 207.2 460 194.1C472.5 179 506 177.3 517.8 161.7C526.2 150.5 516.4 129 506.8 118.4"/><path fill="#429C9B" d="M141.3 347.6C120.2 333.7 101.3 316.3 85.6999 296.4C79.1999 288 73.1999 279.2 69.1999 269.3C65.1999 259.5 63.3999 248.6 65.2999 238.2C66.6999 230.7 70.7999 222.9 77.9999 220.6C83.5999 218.7 89.9999 220.7 94.6999 224.3C99.3999 227.9 102.7 233.1 105.6 238.2C116.9 258.2 123.8 280.2 132.1 301.6C136.1 311.9 140.5 322 145.8 331.6C148.4 336.4 151.3 341.1 154.4 345.5C157.3 349.6 162.5 353.9 164.2 358.3C160.2 361.6 145.1 350.1 141.3 347.6Z"/><path stroke="#57BABD" stroke-miterlimit="10" stroke-width="2.02" d="M81.7998 231.8C92.0998 275.6 116.4 316 150.3 345.7"/><path fill="#429C9B" d="M422.8 347.8C441 339 457.7 327.2 472 313C478 307.1 483.7 300.6 487.8 293.3C491.9 285.9 494.5 277.5 494.1 269C493.8 262.9 491.3 256.4 485.9 253.7C481.6 251.6 476.4 252.5 472.3 254.9C468.2 257.3 465.1 261 462.2 264.8C451.2 279.4 443.5 296.2 434.7 312.2C430.5 319.9 426 327.5 420.8 334.6C418.2 338.1 415.5 341.5 412.5 344.7C409.8 347.6 405.3 350.5 403.4 353.8C406.4 356.9 419.5 349.4 422.8 347.8Z"/><path stroke="#57BABD" stroke-miterlimit="10" stroke-width="1.612" d="M481.8 262.3C469.1 295.9 445.7 325.4 415.9 345.4"/><path stroke="#61A9B8" stroke-miterlimit="10" stroke-width="2.541" d="M150.4 318.9C161.8 262.8 149.6 202.4 117.6 155"/><path fill="#61A9B8" d="M121 160.6C111.8 157.6 103.8 151.2 98.8 143C93.8 134.7 91.9 124.7 93.5 115.2C103.2 117.8 112.4 123.8 117.5 132.5C122.7 141 123.2 150.8 121 160.6Z"/><path fill="#61A9B8" d="M131.2 178.7C129.1 171.6 129.7 163.7 132.7 156.9C135.8 150.1 141.3 144.5 148.1 141.4C150.7 148.7 150.8 157.2 147.6 164.3C144.4 171.3 138.4 175.9 131.2 178.7Z"/><path fill="#61A9B8" d="M131.8 178C126.2 173.1 118.8 170.3 111.4 170.2C104 170.1 96.5 172.8 90.8 177.7C96.4 183.1 104 186.8 111.8 186.8C119.6 186.9 126.2 183.4 131.8 178Z"/><path fill="#61A9B8" d="M142.7 207.5C141.9 200.1 143.8 192.4 148 186.3C152.2 180.2 158.7 175.6 165.9 173.7C167.2 181.4 165.9 189.7 161.4 196.1C157 202.5 150.4 206 142.7 207.5Z"/><path fill="#61A9B8" d="M143.5 207C138.8 201.2 132 197.2 124.7 195.8C117.4 194.5 109.6 195.8 103.2 199.6C107.7 205.9 114.6 210.9 122.2 212.2C129.9 213.6 137 211.3 143.5 207Z"/><path fill="#61A9B8" d="M150.4 236.3C150.2 228.9 152.8 221.4 157.5 215.6C162.2 209.8 169.1 205.9 176.4 204.6C177 212.3 175 220.6 170 226.5C165.1 232.6 158.1 235.5 150.4 236.3Z"/><path fill="#61A9B8" d="M151.2 235.8C147.1 229.6 140.6 225 133.5 223C126.3 221 118.4 221.7 111.7 224.9C115.7 231.6 122.1 237.1 129.6 239.1C137 241.2 144.4 239.6 151.2 235.8Z"/><path fill="#61A9B8" d="M154.8 268C155.8 260.6 159.5 253.6 165 248.7C170.6 243.7 177.9 240.9 185.4 240.7C184.8 248.4 181.5 256.2 175.7 261.4C169.9 266.6 162.6 268.4 154.8 268Z"/><path fill="#61A9B8" d="M155.7 267.7C152.6 260.9 146.9 255.4 140.2 252.3C133.4 249.2 125.5 248.7 118.4 250.8C121.3 258 126.7 264.5 133.8 267.7C140.9 270.8 148.4 270.3 155.7 267.7Z"/><path stroke="#61A9B8" stroke-miterlimit="10" stroke-width="2.541" d="M415.2 338.2C402.9 282.3 414 221.7 445.3 173.8"/><path fill="#61A9B8" d="M442 179.4C451.1 176.2 459 169.7 463.9 161.4C468.7 153.1 470.5 143 468.7 133.5C459 136.3 450 142.5 445 151.2C440 159.9 439.6 169.7 442 179.4Z"/><path fill="#61A9B8" d="M432.1 197.7C434.1 190.5 433.4 182.6 430.2 175.9C427 169.2 421.4 163.6 414.6 160.6C412.1 168 412.1 176.4 415.5 183.4C418.8 190.5 424.8 195 432.1 197.7Z"/><path fill="#61A9B8" d="M431.5 197.1C437 192.1 444.4 189.2 451.8 189C459.2 188.8 466.7 191.4 472.5 196.1C467 201.6 459.5 205.4 451.7 205.6C443.9 205.7 437.2 202.4 431.5 197.1Z"/><path fill="#61A9B8" d="M421 226.7C421.7 219.3 419.7 211.6 415.3 205.6C411 199.5 404.5 195.1 397.2 193.3C396.1 201 397.5 209.3 402 215.6C406.7 222 413.4 225.3 421 226.7Z"/><path fill="#61A9B8" d="M420.3 226.2C424.9 220.3 431.6 216.2 438.9 214.7C446.2 213.2 454 214.5 460.5 218.1C456.1 224.5 449.3 229.5 441.7 231.1C434 232.6 426.8 230.4 420.3 226.2Z"/><path fill="#61A9B8" d="M413.9 255.7C414 248.3 411.2 240.8 406.4 235.1C401.6 229.4 394.7 225.6 387.3 224.4C386.8 232.2 389 240.3 394.1 246.2C399.2 252.2 406.1 254.9 413.9 255.7Z"/><path fill="#61A9B8" d="M413.1 255.2C417.1 248.9 423.5 244.2 430.6 242.1C437.7 240 445.6 240.5 452.4 243.6C448.5 250.3 442.2 256 434.8 258.1C427.3 260.3 420 258.8 413.1 255.2Z"/><path fill="#61A9B8" d="M410 287.4C408.9 280 405.1 273.1 399.4 268.3C393.8 263.4 386.3 260.7 378.9 260.7C379.6 268.4 383.1 276.2 389 281.2C394.9 286.3 402.2 287.9 410 287.4Z"/><path fill="#61A9B8" d="M409.1 287.1C412.1 280.3 417.6 274.6 424.4 271.5C431.1 268.3 439 267.6 446.2 269.6C443.4 276.9 438.1 283.4 431 286.7C424 290 416.5 289.6 409.1 287.1Z"/><path fill="#61A9B8" d="M141.6 375.9C144.7 370.2 148.8 365 151.5 359.2C144.3 350 135.6 341.8 126.5 334.5C120.6 329.8 114.3 325.3 107.9 321.2C102 325.9 96.1 330.6 90.3 335.2C91.3 327 91.9 319.9 92.8 312.2C79.7 305.1 66 299.3 51.8 294.8C48.5 300.1 45.8 305.6 41.4 310.2C41.5 304.2 40.9 297.9 40.1 291.5C27 288.1 13.6 285.9 0.199951 285.1C0.199951 290.5 0.499953 295.9 1.09995 301.3C4.59995 300.2 7.29995 297.3 11 296.7C8.49995 302.6 6.29996 309.2 3.39996 315.2C6.59996 329.5 12.1 343.3 19.5 356C25.7 352.4 31.5 347.4 38.9 344.3C37.6 355.7 37.6 367.6 36.6 379.1C40.5 383.4 44.7 387.4 49.2 391.1C57.1 397.6 65.7 403.2 74.8 407.8C76.7 400.7 78.6 393.7 83.2 387.8C88.6 398.1 94.4 407.2 99.3 417.3C119.7 423.1 141.5 424.3 162.3 420.3C165.8 419.6 168.6 414.1 169.7 410.8C170.8 407.5 170.6 403.8 170.1 400.3C168.6 389.3 164.5 379.1 158.8 369.8C152.8 371.2 146.7 372.9 141.6 375.9Z"/><path stroke="#85CCE0" stroke-miterlimit="10" stroke-width="2.541" d="M147.5 409.6C99.5 381.4 55.6 346.1 17.6 305.4"/><path fill="#61A9B8" d="M425.4 387.2C422.5 383.3 418.9 379.9 416.2 375.8C420.6 368.2 426.2 361.1 432.2 354.8C436.1 350.6 440.3 346.7 444.6 342.9C449.5 345.8 454.4 348.6 459.2 351.5C457.6 345.5 456.4 340.3 454.9 334.6C463.9 327.9 473.5 322.1 483.5 317.3C486.5 320.9 489.2 324.7 492.9 327.6C492.2 323.1 492 318.4 491.9 313.5C501.3 309.6 511 306.5 520.9 304.4C521.5 308.4 521.9 312.5 522 316.6C519.3 316.2 516.9 314.3 514.1 314.3C516.6 318.5 518.9 323.1 521.7 327.3C520.8 338.3 518.2 349.2 514 359.4C509 357.4 504.2 354.2 498.3 352.7C500.5 361 501.8 369.9 503.7 378.4C501.2 382 498.5 385.4 495.6 388.7C490.5 394.4 484.6 399.5 478.3 403.9C476.2 398.8 474 393.8 469.9 389.9C467 398.1 463.6 405.5 461 413.6C446.4 420.1 430.4 423.3 414.4 422.6C411.8 422.5 409 418.7 407.9 416.3C406.7 413.9 406.5 411.2 406.5 408.6C406.5 400.3 408.4 392.3 411.7 384.7C416.6 384.9 421.3 385.5 425.4 387.2Z"/><path stroke="#85CCE0" stroke-miterlimit="10" stroke-width="1.911" d="M424.7 412.9C457.4 386.7 486.4 355.8 510.3 321.4"/><path fill="#101439" d="M421.2 422.6H142.6C136.6 422.6 131.8 417.8 131.8 411.8V233.1C131.8 227.1 136.6 222.3 142.6 222.3H421.2C427.2 222.3 432 227.1 432 233.1V411.8C432 417.8 427.1 422.6 421.2 422.6Z"/><path fill="#1C2363" d="M419.3 331.5C424.326 331.5 428.4 327.426 428.4 322.4C428.4 317.374 424.326 313.3 419.3 313.3C414.274 313.3 410.2 317.374 410.2 322.4C410.2 327.426 414.274 331.5 419.3 331.5Z"/><path fill="#1C2363" d="M138.1 356.3C136.5 356.3 135.2 355 135.2 353.4V291.4C135.2 289.8 136.5 288.5 138.1 288.5C139.7 288.5 141 289.8 141 291.4V353.4C141 355 139.7 356.3 138.1 356.3Z"/><path fill="#DCE8F4" d="M406.7 229.6H145.1V415.2H406.7V229.6Z"/><path fill="#A6AFB8" d="M406.7 229.6H145.1V242.1H406.7V229.6Z"/><path fill="#FC6047" d="M152.7 236.4H149.4V240.6H152.7V236.4Z"/><path fill="#FC6047" d="M157 233.5H153.7V240.6H157V233.5Z"/><path fill="#FC6047" d="M161.6 231.4H158.3V240.6H161.6V231.4Z"/><path fill="#DCE8F4" d="M385.9 232.2V232.8C385.9 233.3 385.5 233.7 385 233.7H384C383.5 233.7 383.1 234.1 383.1 234.6V237.3C383.1 237.8 383.5 238.2 384 238.2H385C385.5 238.2 385.9 238.6 385.9 239.1V239.7C385.9 240.2 386.3 240.6 386.8 240.6H400.4C400.9 240.6 401.3 240.2 401.3 239.7V232.3C401.3 231.8 400.9 231.4 400.4 231.4H386.8C386.3 231.3 385.9 231.7 385.9 232.2Z"/><path fill="#B7FC47" d="M400.5 240H398C397.8 240 397.7 239.9 397.7 239.7V232.1C397.7 231.9 397.8 231.8 398 231.8H400.4C400.6 231.8 400.7 231.9 400.7 232.1V239.7C400.8 239.8 400.6 240 400.5 240Z"/><path fill="#B7FC47" d="M396.7 240H394.3C394.1 240 394 239.9 394 239.7V232.1C394 231.9 394.1 231.8 394.3 231.8H396.7C396.9 231.8 397 231.9 397 232.1V239.7C397 239.8 396.9 240 396.7 240Z"/><path fill="#B7FC47" d="M392.9 240H390.5C390.3 240 390.2 239.9 390.2 239.7V232.1C390.2 231.9 390.3 231.8 390.5 231.8H392.9C393.1 231.8 393.2 231.9 393.2 232.1V239.7C393.2 239.8 393.1 240 392.9 240Z"/><path fill="#DCE8F4" d="M375.6 239.4C377.533 239.4 379.1 237.833 379.1 235.9C379.1 233.967 377.533 232.4 375.6 232.4C373.667 232.4 372.1 233.967 372.1 235.9C372.1 237.833 373.667 239.4 375.6 239.4Z"/><path fill="#C3CED9" d="M390.2 256.1H161.7V400.9H390.2V256.1Z"/><path fill="#A7B1BA" d="M390.2 256.1H161.7V268.6H390.2V256.1Z"/><path fill="#E0EDFA" d="M385.6 275.1H236V281H385.6V275.1Z"/><path fill="#E0EDFA" d="M318.6 286.4H236V292.3H318.6V286.4Z"/><path fill="#E0EDFA" d="M280.4 297.7H236V303.6H280.4V297.7Z"/><path fill="#E0EDFA" d="M385.6 317.3H236V323.2H385.6V317.3Z"/><path fill="#E0EDFA" d="M318.6 328.6H236V334.5H318.6V328.6Z"/><path fill="#E0EDFA" d="M280.4 339.9H236V345.8H280.4V339.9Z"/><path fill="#E0EDFA" d="M385.6 358.5H236V364.4H385.6V358.5Z"/><path fill="#E0EDFA" d="M318.6 369.8H236V375.7H318.6V369.8Z"/><path fill="#E0EDFA" d="M280.4 381.1H236V387H280.4V381.1Z"/><path fill="#E0EDFA" d="M228.6 275.1H170.6V307.8H228.6V275.1Z"/><path fill="#CEDAE6" d="M170.6 307.7L199.6 291.4L228.6 307.7H170.6Z"/><path fill="#CEDAE6" d="M228.6 275.1L199.6 291.4L170.6 275.1H228.6Z"/><path fill="#E0EDFA" d="M228.6 317.1H170.6V349.8H228.6V317.1Z"/><path fill="#CEDAE6" d="M170.6 349.8L199.6 333.4L228.6 349.8H170.6Z"/><path fill="#CEDAE6" d="M228.6 317.1L199.6 333.4L170.6 317.1H228.6Z"/><path fill="#E0EDFA" d="M228.6 359.1H170.6V391.8H228.6V359.1Z"/><path fill="#CEDAE6" d="M170.6 391.8L199.6 375.4L228.6 391.8H170.6Z"/><path fill="#CEDAE6" d="M228.6 359.1L199.6 375.4L170.6 359.1H228.6Z"/><g opacity=".44"><path fill="#fff" d="M238.6 229.6L145.1 323.1V241.4L156.9 229.6H238.6Z" opacity=".44"/><path fill="#fff" d="M295.3 229.6L145.1 379.8V338L253.5 229.6H295.3Z" opacity=".44"/></g><g opacity=".44"><path fill="#fff" d="M406.7 249.8V331.5L323 415.2H241.3L406.7 249.8Z" opacity=".44"/><path fill="#fff" d="M406.7 346.4V388.2L379.7 415.2H337.9L406.7 346.4Z" opacity=".44"/></g><path fill="#EE8F23" d="M189.3 224.6L266.8 164.5C271.7 160.7 278.6 160.7 283.5 164.5L361 224.6V325.3H189.3V224.6Z"/><path fill="#FAFAFA" d="M341.1 171.2H209.1V316.4H341.1V171.2Z"/><path fill="#DBDBDB" d="M333.2 179.9H217.1V184.3H333.2V179.9Z"/><path fill="#DBDBDB" d="M315.8 188.8H217.1V193.2H315.8V188.8Z"/><path fill="#DBDBDB" d="M299.8 197.7H217.1V202.1H299.8V197.7Z"/><path fill="#DBDBDB" d="M299.8 214.8H217.1V219.2H299.8V214.8Z"/><path fill="#DBDBDB" d="M278.4 223.3H217.1V227.7H278.4V223.3Z"/><path fill="#DBDBDB" d="M336.4 241.2H275.1V245.6H336.4V241.2Z"/><path fill="#DBDBDB" d="M336.5 249.9H286.6V254.3H336.5V249.9Z"/><path fill="#FFAC42" d="M275.1 274.9L189.3 224.6V325.3L275.1 274.9Z"/><path fill="#FFAC42" d="M275.1 274.9L361 224.6V325.3L275.1 274.9Z"/><path fill="#FFBE6E" d="M266.8 265.2L189.3 325.3H361L283.5 265.2C278.6 261.4 271.7 261.4 266.8 265.2Z"/><path fill="#FC6D5F" d="M361 238C368.401 238 374.4 232.001 374.4 224.6C374.4 217.199 368.401 211.2 361 211.2C353.599 211.2 347.6 217.199 347.6 224.6C347.6 232.001 353.599 238 361 238Z"/><path fill="#fff" d="M358 217.8V230.8H354.3V220.7H351.9V217.9H358V217.8Z"/><path fill="#fff" d="M368.8 223.6C369.7 224.3 370.1 225.3 370.1 226.6C370.1 227.4 369.9 228.1 369.5 228.8C369.1 229.5 368.5 230 367.6 230.4C366.8 230.8 365.7 231 364.5 231C363.6 231 362.7 230.9 361.8 230.7C360.9 230.5 360.1 230.2 359.5 229.8L360.8 227C361.3 227.3 361.9 227.6 362.5 227.8C363.1 228 363.7 228.1 364.4 228.1C365 228.1 365.5 228 365.9 227.7C366.3 227.5 366.5 227.1 366.5 226.7C366.5 226.3 366.3 225.9 365.9 225.7C365.5 225.5 364.9 225.4 363.9 225.4H360.4L361 217.8H369.3V220.6H364.1L363.9 222.5H364.8C366.6 222.5 367.9 222.9 368.8 223.6Z"/><path fill="#BCDFEB" d="M139.6 105.3C141.9 105.4 143.9 106 145.7 107.2C147.5 108.4 148.9 110 149.8 112C150.5 113.5 150.9 114.9 150.9 116.2C150.9 117.5 150.7 118.6 150.1 119.6C149.5 120.5 148.7 121.3 147.7 121.8C146.8 122.2 146 122.4 145.2 122.3C144.4 122.2 143.7 121.9 143 121.3C142.9 123.1 141.9 124.5 140 125.4C139 125.9 138 126 136.9 125.9C135.8 125.8 134.8 125.4 133.8 124.7C132.8 124 132.1 123 131.5 121.8C130.9 120.6 130.6 119.4 130.7 118.2C130.7 117 131.1 116 131.7 115C132.3 114.1 133.1 113.4 134.1 112.9C135.6 112.2 136.9 112.1 138.2 112.7L137.6 111.5L141.7 109.6L145.3 117.2C145.6 117.7 145.8 118.1 146.1 118.2C146.4 118.3 146.7 118.3 147.1 118.2C148.1 117.7 148.1 116.2 146.8 113.6C146 112 145 110.8 143.7 109.9C142.4 109 140.9 108.6 139.2 108.5C137.5 108.5 135.8 108.8 134 109.7C132.3 110.5 130.9 111.6 129.9 113C128.9 114.4 128.3 115.9 128.2 117.6C128.1 119.3 128.4 120.9 129.2 122.6C130 124.3 131.1 125.6 132.4 126.6C133.8 127.6 135.3 128.1 137 128.2C138.7 128.3 140.4 127.9 142.2 127.1C144 126.3 145.5 125.1 146.6 123.6L148.8 125.8C148.2 126.5 147.5 127.2 146.5 128C145.5 128.7 144.5 129.3 143.5 129.8C141.1 130.9 138.7 131.5 136.4 131.3C134.1 131.2 132 130.5 130.2 129.2C128.4 127.9 126.9 126.2 125.9 124C124.9 121.8 124.4 119.6 124.6 117.4C124.8 115.2 125.6 113.1 127 111.2C128.4 109.3 130.3 107.8 132.7 106.6C135.1 105.7 137.4 105.2 139.6 105.3ZM140.9 119.9C141.1 119.2 141 118.4 140.6 117.5C140.2 116.6 139.6 116 138.9 115.7C138.2 115.4 137.5 115.5 136.8 115.8C136.1 116.1 135.6 116.7 135.4 117.4C135.2 118.1 135.3 118.9 135.7 119.8C136.1 120.7 136.7 121.3 137.4 121.6C138.1 121.9 138.8 121.9 139.5 121.5C140.2 121.1 140.7 120.6 140.9 119.9Z"/><path fill="#BCDFEB" d="M367.5 110.6L366.2 114.8L369.9 115.5L369.2 119.3L365 118.5L363.6 122.8L359.6 122.1L361 117.8L357.4 117.1L356 121.4L352 120.7L353.4 116.4L349.7 115.7L350.4 111.9L354.6 112.7L355.9 108.5L352.2 107.8L352.9 104L357.1 104.8L358.5 100.5L362.5 101.2L361.1 105.5L364.7 106.2L366.1 101.9L370.1 102.6L368.7 106.9L372.4 107.6L371.7 111.4L367.5 110.6ZM363.5 109.8L359.9 109.1L358.6 113.3L362.2 114L363.5 109.8Z"/><path fill="#FFBE6E" d="M174.7 367.9H124.9C109.8 367.9 97.5 355.7 97.5 340.5C97.5 325.4 109.7 313.1 124.9 313.1H147.3C162.4 313.1 174.7 325.3 174.7 340.5V367.9Z"/><path fill="#FAFAFA" d="M136.1 319.9C124.7 319.9 115.4 329.2 115.4 340.6C115.4 352 124.7 361.3 136.1 361.3C147.5 361.3 156.8 352 156.8 340.6C156.8 329.1 147.5 319.9 136.1 319.9ZM118.1 340.5C118.1 339.1 118.3 337.8 118.6 336.5C119.5 336.1 121.3 335.4 123.7 334.7C123.1 337.8 122.9 341.3 123.4 345C121.8 344.6 120.1 344.1 118.3 343.4C118.2 342.5 118.1 341.5 118.1 340.5ZM126.4 334.1C131 333.2 137.2 332.8 144.7 334.2C145.4 337.8 145.8 341.9 145.1 346.1C140.3 346.9 133.9 347.2 126.1 345.6C125.4 341.5 125.7 337.5 126.4 334.1ZM147.5 334.9C149.5 335.4 151.6 336 153.7 336.7C154 337.9 154.1 339.2 154.1 340.6C154.1 341.6 154 342.6 153.8 343.6C152.8 344.1 150.8 344.9 147.8 345.6C148.3 341.8 148.1 338.1 147.5 334.9ZM152.7 333.5C150.7 332.9 148.8 332.3 146.9 331.9C146.2 328.9 145.2 326.3 144.5 324.5C148.2 326.5 151.1 329.7 152.7 333.5ZM140.9 323.2C141.4 324.1 142.9 327.2 144 331.4C137.3 330.3 131.6 330.5 127.1 331.2C128.3 327.2 129.9 324.4 130.5 323.4C132.3 322.8 134.1 322.5 136.1 322.5C137.8 322.5 139.4 322.8 140.9 323.2ZM126.6 325.3C125.8 327 125 329.2 124.3 331.8C122.4 332.2 120.9 332.7 119.7 333.2C121.2 329.9 123.6 327.1 126.6 325.3ZM119.1 346.5C120.8 347 122.4 347.5 123.9 347.9C124.5 350.6 125.6 353.4 127.3 356.3C123.5 354.1 120.6 350.7 119.1 346.5ZM131.7 358C129.3 354.8 127.8 351.6 126.9 348.5C130.7 349.2 134.2 349.5 137.4 349.5C140.1 349.5 142.5 349.3 144.6 349C143.8 352.1 142.4 355.1 140.3 358C139 358.3 137.6 358.5 136.2 358.5C134.6 358.6 133.1 358.3 131.7 358ZM144.4 356.5C145.9 353.9 146.8 351.2 147.4 348.5C149.7 348 151.6 347.4 152.9 346.9C151.4 351 148.3 354.5 144.4 356.5Z"/><path fill="#FFBE6E" d="M370.5 401.7H420.3C435.4 401.7 447.7 389.5 447.7 374.3C447.7 359.2 435.5 346.9 420.3 346.9H397.9C382.8 346.9 370.5 359.1 370.5 374.3V401.7Z"/><path stroke="#FAFAFA" stroke-linejoin="round" stroke-miterlimit="10" stroke-width="3.811" d="M429.6 366.5C429.6 358.8 417.3 352.1 409.1 358.8C400.9 352.1 388.6 358.8 388.6 366.5C388.6 366.5 386 381.7 409.1 392.7C432.3 381.6 429.6 366.5 429.6 366.5Z"/><path fill="#BCDFEB" d="M354.2 40.4C353.9 40.3 353.6 40.2 353.2 40.1C353.1 39.8 353 39.5 352.9 39.2C352.4 37.9 351.7 36.7 350.4 35.4C349.1 36.7 348.4 37.9 347.9 39.2C347.8 39.5 347.7 39.8 347.6 40.1C347.3 40.2 347 40.3 346.7 40.4C345.4 40.9 344.2 41.6 342.9 42.9C344.2 44.2 345.4 44.9 346.7 45.4C347 45.5 347.3 45.6 347.6 45.7C347.7 46 347.8 46.3 347.9 46.7C348.4 48 349.1 49.2 350.4 50.5C351.8 49.2 352.4 48 352.9 46.7C353 46.4 353.1 46.1 353.2 45.8C353.5 45.7 353.8 45.6 354.1 45.5C355.4 45 356.6 44.3 357.9 43C356.7 41.6 355.5 40.9 354.2 40.4Z"/><path fill="#BCDFEB" d="M13.9 252C13.6 251.9 13.3 251.8 12.9 251.7C12.8 251.4 12.7 251.1 12.6 250.8C12.1 249.5 11.4 248.3 10.1 247C8.79998 248.3 8.09998 249.5 7.59998 250.8C7.49998 251.1 7.39998 251.4 7.29998 251.7C6.99998 251.8 6.69998 251.9 6.39998 252C5.09998 252.5 3.89998 253.2 2.59998 254.5C3.89998 255.8 5.09998 256.5 6.39998 257C6.69998 257.1 6.99998 257.2 7.29998 257.3C7.39998 257.6 7.49998 257.9 7.59998 258.3C8.09998 259.6 8.79998 260.8 10.1 262.1C11.5 260.8 12.1 259.6 12.6 258.3C12.7 258 12.8 257.7 12.9 257.4C13.2 257.3 13.5 257.2 13.8 257.1C15.1 256.6 16.3 255.9 17.6 254.6C16.4 253.2 15.1 252.5 13.9 252Z"/><path fill="#BCDFEB" d="M380.3 190.7C380 190.6 379.7 190.5 379.3 190.4C379.2 190.1 379.1 189.8 379 189.5C378.5 188.2 377.8 187 376.5 185.7C375.2 187 374.5 188.2 374 189.5C373.9 189.8 373.8 190.1 373.7 190.4C373.4 190.5 373.1 190.6 372.8 190.7C371.5 191.2 370.3 191.9 369 193.2C370.3 194.5 371.5 195.2 372.8 195.7C373.1 195.8 373.4 195.9 373.7 196C373.8 196.3 373.9 196.6 374 197C374.5 198.3 375.2 199.5 376.5 200.8C377.9 199.5 378.5 198.3 379 197C379.1 196.7 379.2 196.4 379.3 196.1C379.6 196 379.9 195.9 380.2 195.8C381.5 195.3 382.7 194.6 384 193.3C382.8 191.9 381.5 191.2 380.3 190.7Z"/><path fill="#DBF6FF" d="M511.9 60C511.7 59.9 511.6 59.9 511.4 59.8C511.4 59.6 511.3 59.5 511.2 59.3C510.9 58.7 510.6 58 509.9 57.4C509.2 58 508.9 58.7 508.6 59.3C508.5 59.5 508.5 59.6 508.4 59.8C508.2 59.8 508.1 59.9 507.9 60C507.3 60.3 506.6 60.6 506 61.3C506.6 62 507.3 62.3 507.9 62.6C508.1 62.7 508.2 62.7 508.4 62.8C508.4 63 508.5 63.1 508.6 63.3C508.9 63.9 509.2 64.6 509.9 65.2C510.6 64.6 510.9 63.9 511.2 63.3C511.3 63.1 511.3 63 511.4 62.8C511.6 62.8 511.7 62.7 511.9 62.6C512.5 62.3 513.2 62 513.8 61.3C513.2 60.6 512.5 60.2 511.9 60Z"/><path fill="#DBF6FF" d="M550.9 172.6C550.7 172.5 550.6 172.5 550.4 172.4C550.4 172.2 550.3 172.1 550.2 171.9C549.9 171.3 549.6 170.6 548.9 170C548.2 170.6 547.9 171.3 547.6 171.9C547.5 172.1 547.5 172.2 547.4 172.4C547.2 172.4 547.1 172.5 546.9 172.6C546.3 172.9 545.6 173.2 545 173.9C545.6 174.6 546.3 174.9 546.9 175.2C547.1 175.3 547.2 175.3 547.4 175.4C547.4 175.6 547.5 175.7 547.6 175.9C547.9 176.5 548.2 177.2 548.9 177.8C549.6 177.2 549.9 176.5 550.2 175.9C550.3 175.7 550.3 175.6 550.4 175.4C550.6 175.4 550.7 175.3 550.9 175.2C551.5 174.9 552.2 174.6 552.8 173.9C552.1 173.1 551.5 172.8 550.9 172.6Z"/><path fill="#DBF6FF" d="M549.4 169.9C549.2 169.8 549.1 169.8 548.9 169.7C548.9 169.5 548.8 169.4 548.7 169.2C548.4 168.6 548.1 167.9 547.4 167.3C546.7 167.9 546.4 168.6 546.1 169.2C546 169.4 546 169.5 545.9 169.7C545.7 169.7 545.6 169.8 545.4 169.9C544.8 170.2 544.1 170.5 543.5 171.2C544.1 171.9 544.8 172.2 545.4 172.5C545.6 172.6 545.7 172.6 545.9 172.7C545.9 172.9 546 173 546.1 173.2C546.4 173.8 546.7 174.5 547.4 175.1C548.1 174.5 548.4 173.8 548.7 173.2C548.8 173 548.8 172.9 548.9 172.7C549.1 172.7 549.2 172.6 549.4 172.5C550 172.2 550.7 171.9 551.3 171.2C550.6 170.5 550 170.2 549.4 169.9Z"/><path fill="#BCDFEB" d="M92.7 204.3C92.5 204.2 92.4 204.2 92.2 204.1C92.2 203.9 92.1 203.8 92 203.6C91.7 203 91.4 202.3 90.7 201.7C90 202.3 89.7 203 89.4 203.6C89.3 203.8 89.3 203.9 89.2 204.1C89 204.1 88.9 204.2 88.7 204.3C88.1 204.6 87.4 204.9 86.8 205.6C87.4 206.3 88.1 206.6 88.7 206.9C88.9 207 89 207 89.2 207.1C89.2 207.3 89.3 207.4 89.4 207.6C89.7 208.2 90 208.9 90.7 209.5C91.4 208.9 91.7 208.2 92 207.6C92.1 207.4 92.1 207.3 92.2 207.1C92.4 207.1 92.5 207 92.7 206.9C93.3 206.6 94.0001 206.3 94.6001 205.6C94.0001 204.9 93.4 204.6 92.7 204.3Z"/><path fill="#BCDFEB" d="M23.1999 404.2C22.9999 404.1 22.8999 404.1 22.6999 404C22.6999 403.8 22.5999 403.7 22.4999 403.5C22.1999 402.9 21.8999 402.2 21.1999 401.6C20.4999 402.2 20.1999 402.9 19.8999 403.5C19.7999 403.7 19.7999 403.8 19.6999 404C19.4999 404 19.3999 404.1 19.1999 404.2C18.5999 404.5 17.8999 404.8 17.2999 405.5C17.8999 406.2 18.5999 406.5 19.1999 406.8C19.3999 406.9 19.4999 406.9 19.6999 407C19.6999 407.2 19.7999 407.3 19.8999 407.5C20.1999 408.1 20.4999 408.8 21.1999 409.4C21.8999 408.8 22.1999 408.1 22.4999 407.5C22.5999 407.3 22.5999 407.2 22.6999 407C22.8999 407 22.9999 406.9 23.1999 406.8C23.7999 406.5 24.4999 406.2 25.0999 405.5C24.4999 404.8 23.7999 404.5 23.1999 404.2Z"/><path fill="#BCDFEB" d="M292.3 104C292.1 103.9 292 103.9 291.8 103.8C291.8 103.6 291.7 103.5 291.6 103.3C291.3 102.7 291 102 290.3 101.4C289.6 102 289.3 102.7 289 103.3C288.9 103.5 288.9 103.6 288.8 103.8C288.6 103.8 288.5 103.9 288.3 104C287.7 104.3 287 104.6 286.4 105.3C287 106 287.7 106.3 288.3 106.6C288.5 106.7 288.6 106.7 288.8 106.8C288.8 107 288.9 107.1 289 107.3C289.3 107.9 289.6 108.6 290.3 109.2C291 108.6 291.3 107.9 291.6 107.3C291.7 107.1 291.7 107 291.8 106.8C292 106.8 292.1 106.7 292.3 106.6C292.9 106.3 293.6 106 294.2 105.3C293.5 104.6 292.9 104.2 292.3 104Z"/><path fill="#BCDFEB" d="M108.6 39.6C108.4 39.5 108.3 39.5 108.1 39.4C108.1 39.2 108 39.1 107.9 38.9C107.6 38.3 107.3 37.6 106.6 37C105.9 37.6 105.6 38.3 105.3 38.9C105.2 39.1 105.2 39.2 105.1 39.4C104.9 39.4 104.8 39.5 104.6 39.6C104 39.9 103.3 40.2 102.7 40.9C103.3 41.6 104 41.9 104.6 42.2C104.8 42.3 104.9 42.3 105.1 42.4C105.1 42.6 105.2 42.7 105.3 42.9C105.6 43.5 105.9 44.2 106.6 44.8C107.3 44.2 107.6 43.5 107.9 42.9C108 42.7 108 42.6 108.1 42.4C108.3 42.4 108.4 42.3 108.6 42.2C109.2 41.9 109.9 41.6 110.5 40.9C109.9 40.2 109.3 39.9 108.6 39.6Z"/><path fill="#BCDFEB" d="M501.1 210.1C500.9 210 500.8 210 500.6 209.9C500.6 209.7 500.5 209.6 500.4 209.4C500.1 208.8 499.8 208.1 499.1 207.5C498.4 208.1 498.1 208.8 497.8 209.4C497.7 209.6 497.7 209.7 497.6 209.9C497.4 209.9 497.3 210 497.1 210.1C496.5 210.4 495.8 210.7 495.2 211.4C495.8 212.1 496.5 212.4 497.1 212.7C497.3 212.8 497.4 212.8 497.6 212.9C497.6 213.1 497.7 213.2 497.8 213.4C498.1 214 498.4 214.7 499.1 215.3C499.8 214.7 500.1 214 500.4 213.4C500.5 213.2 500.5 213.1 500.6 212.9C500.8 212.9 500.9 212.8 501.1 212.7C501.7 212.4 502.4 212.1 503 211.4C502.3 210.7 501.7 210.4 501.1 210.1Z"/><path fill="#DBF6FF" d="M313.4 143.9C313.2 143.8 313.1 143.8 312.9 143.7C312.9 143.5 312.8 143.4 312.7 143.2C312.4 142.6 312.1 141.9 311.4 141.3C310.7 141.9 310.4 142.6 310.1 143.2C310 143.4 310 143.5 309.9 143.7C309.7 143.7 309.6 143.8 309.4 143.9C308.8 144.2 308.1 144.5 307.5 145.2C308.1 145.9 308.8 146.2 309.4 146.5C309.6 146.6 309.7 146.6 309.9 146.7C309.9 146.9 310 147 310.1 147.2C310.4 147.8 310.7 148.5 311.4 149.1C312.1 148.5 312.4 147.8 312.7 147.2C312.8 147 312.8 146.9 312.9 146.7C313.1 146.7 313.2 146.6 313.4 146.5C314 146.2 314.7 145.9 315.3 145.2C314.7 144.5 314.1 144.1 313.4 143.9Z"/><path fill="#BCDFEB" d="M241.9 68.8C241.6 68.7 241.3 68.6 241.1 68.5C241 68.2 240.9 67.9 240.8 67.7C240.4 66.6 239.8 65.5 238.6 64.4C237.4 65.5 236.8 66.6 236.4 67.7C236.3 68 236.2 68.3 236.1 68.5C235.8 68.6 235.5 68.7 235.3 68.8C234.2 69.2 233.1 69.8 232 71C233.1 72.2 234.2 72.8 235.3 73.2C235.6 73.3 235.9 73.4 236.1 73.5C236.2 73.8 236.3 74.1 236.4 74.3C236.8 75.4 237.4 76.5 238.6 77.6C239.8 76.5 240.4 75.4 240.8 74.3C240.9 74 241 73.7 241.1 73.5C241.4 73.4 241.7 73.3 241.9 73.2C243 72.8 244.1 72.2 245.2 71C244.1 69.9 243 69.3 241.9 68.8Z"/><path fill="#BCDFEB" d="M72.1999 149.6C71.8999 149.5 71.5999 149.4 71.3999 149.3C71.2999 149 71.1999 148.7 71.0999 148.5C70.6999 147.4 70.0999 146.3 68.8999 145.2C67.6999 146.3 67.0999 147.4 66.6999 148.5C66.5999 148.8 66.4999 149.1 66.3999 149.3C66.0999 149.4 65.7999 149.5 65.5999 149.6C64.4999 150 63.3999 150.6 62.2999 151.8C63.3999 153 64.4999 153.6 65.5999 154C65.8999 154.1 66.1999 154.2 66.3999 154.3C66.4999 154.6 66.5999 154.9 66.6999 155.1C67.0999 156.2 67.6999 157.3 68.8999 158.4C70.0999 157.3 70.6999 156.2 71.0999 155.1C71.1999 154.8 71.2999 154.5 71.3999 154.3C71.6999 154.2 71.9999 154.1 72.1999 154C73.2999 153.6 74.3999 153 75.4999 151.8C74.3999 150.6 73.2999 150 72.1999 149.6Z"/><path fill="#DBF6FF" d="M431 122.7C430.7 122.6 430.4 122.5 430.2 122.4C430.1 122.1 430 121.8 429.9 121.6C429.5 120.5 428.9 119.4 427.7 118.3C426.5 119.4 425.9 120.5 425.5 121.6C425.4 121.9 425.3 122.2 425.2 122.4C424.9 122.5 424.6 122.6 424.4 122.7C423.3 123.1 422.2 123.7 421.1 124.9C422.2 126.1 423.3 126.7 424.4 127.1C424.7 127.2 425 127.3 425.2 127.4C425.3 127.7 425.4 128 425.5 128.2C425.9 129.3 426.5 130.4 427.7 131.5C428.9 130.4 429.5 129.3 429.9 128.2C430 127.9 430.1 127.6 430.2 127.4C430.5 127.3 430.8 127.2 431 127.1C432.1 126.7 433.2 126.1 434.3 124.9C433.2 123.8 432.1 123.2 431 122.7Z"/><path fill="#DBF6FF" d="M597.2 85.4C596.9 85.3 596.6 85.2 596.4 85.1C596.3 84.8 596.2 84.5 596.1 84.3C595.7 83.2 595.1 82.1 593.9 81C592.7 82.1 592.1 83.2 591.7 84.3C591.6 84.6 591.5 84.9 591.4 85.1C591.1 85.2 590.8 85.3 590.6 85.4C589.5 85.8 588.4 86.4 587.3 87.6C588.4 88.8 589.5 89.4 590.6 89.8C590.9 89.9 591.2 90 591.4 90.1C591.5 90.4 591.6 90.7 591.7 90.9C592.1 92 592.7 93.1 593.9 94.2C595.1 93.1 595.7 92 596.1 90.9C596.2 90.6 596.3 90.3 596.4 90.1C596.7 90 597 89.9 597.2 89.8C598.3 89.4 599.4 88.8 600.5 87.6C599.4 86.4 598.3 85.8 597.2 85.4Z"/><path fill="#DBF6FF" d="M422.8 34C422.5 33.9 422.2 33.8 422 33.7C421.9 33.4 421.8 33.1 421.7 32.9C421.3 31.8 420.7 30.7 419.5 29.6C418.3 30.7 417.7 31.8 417.3 32.9C417.2 33.2 417.1 33.5 417 33.7C416.7 33.8 416.4 33.9 416.2 34C415.1 34.4 414 35 412.9 36.2C414 37.4 415.1 38 416.2 38.4C416.5 38.5 416.8 38.6 417 38.7C417.1 39 417.2 39.3 417.3 39.5C417.7 40.6 418.3 41.7 419.5 42.8C420.7 41.7 421.3 40.6 421.7 39.5C421.8 39.2 421.9 38.9 422 38.7C422.3 38.6 422.6 38.5 422.8 38.4C423.9 38 425 37.4 426.1 36.2C425 35.1 423.9 34.5 422.8 34Z"/></svg>